<mxfile host="app.diagrams.net" agent="Mozilla/5.0 (Windows NT 10.0; Win64; x64) AppleWebKit/537.36 (KHTML, like Gecko) Chrome/129.0.0.0 Safari/537.36" version="24.7.17">
  <diagram name="Page-1" id="2YBvvXClWsGukQMizWep">
    <mxGraphModel dx="794" dy="446" grid="1" gridSize="10" guides="1" tooltips="1" connect="1" arrows="1" fold="1" page="1" pageScale="1" pageWidth="850" pageHeight="1100" math="0" shadow="0">
      <root>
        <mxCell id="0" />
        <mxCell id="1" parent="0" />
        <mxCell id="GErdKHh-ykBHz63R_YA1-1" value="" style="group" vertex="1" connectable="0" parent="1">
          <mxGeometry x="70" y="45" width="80" height="335" as="geometry" />
        </mxCell>
        <mxCell id="GErdKHh-ykBHz63R_YA1-2" value="" style="shape=umlLifeline;perimeter=lifelinePerimeter;whiteSpace=wrap;html=1;container=1;dropTarget=0;collapsible=0;recursiveResize=0;outlineConnect=0;portConstraint=eastwest;newEdgeStyle={&quot;curved&quot;:0,&quot;rounded&quot;:0};participant=umlActor;" vertex="1" parent="GErdKHh-ykBHz63R_YA1-1">
          <mxGeometry x="26.666666666666664" y="-11.166666666666671" width="26.666666666666664" height="346.1666666666668" as="geometry" />
        </mxCell>
        <mxCell id="GErdKHh-ykBHz63R_YA1-3" value="Student" style="text;html=1;align=center;verticalAlign=middle;resizable=0;points=[];autosize=1;strokeColor=none;fillColor=none;" vertex="1" parent="GErdKHh-ykBHz63R_YA1-1">
          <mxGeometry x="10" y="43.22220430107529" width="60" height="30" as="geometry" />
        </mxCell>
        <mxCell id="GErdKHh-ykBHz63R_YA1-4" value="" style="html=1;points=[[0,0,0,0,5],[0,1,0,0,-5],[1,0,0,0,5],[1,1,0,0,-5]];perimeter=orthogonalPerimeter;outlineConnect=0;targetShapes=umlLifeline;portConstraint=eastwest;newEdgeStyle={&quot;curved&quot;:0,&quot;rounded&quot;:0};" vertex="1" parent="GErdKHh-ykBHz63R_YA1-1">
          <mxGeometry x="35" y="96.52542372881356" width="10" height="210.0847457627119" as="geometry" />
        </mxCell>
        <mxCell id="GErdKHh-ykBHz63R_YA1-7" value="&lt;b&gt;Test Controller&lt;/b&gt;" style="shape=umlLifeline;perimeter=lifelinePerimeter;whiteSpace=wrap;html=1;container=1;dropTarget=0;collapsible=0;recursiveResize=0;outlineConnect=0;portConstraint=eastwest;newEdgeStyle={&quot;curved&quot;:0,&quot;rounded&quot;:0};participant=umlControl;size=70;" vertex="1" parent="1">
          <mxGeometry x="230" y="40" width="65" height="340" as="geometry" />
        </mxCell>
        <mxCell id="GErdKHh-ykBHz63R_YA1-8" value="" style="html=1;points=[[0,0,0,0,5],[0,1,0,0,-5],[1,0,0,0,5],[1,1,0,0,-5]];perimeter=orthogonalPerimeter;outlineConnect=0;targetShapes=umlLifeline;portConstraint=eastwest;newEdgeStyle={&quot;curved&quot;:0,&quot;rounded&quot;:0};" vertex="1" parent="GErdKHh-ykBHz63R_YA1-7">
          <mxGeometry x="27.5" y="90" width="10" height="210" as="geometry" />
        </mxCell>
        <mxCell id="GErdKHh-ykBHz63R_YA1-9" value="&lt;b&gt;Test Service&lt;/b&gt;" style="shape=umlLifeline;perimeter=lifelinePerimeter;whiteSpace=wrap;html=1;container=1;dropTarget=0;collapsible=0;recursiveResize=0;outlineConnect=0;portConstraint=eastwest;newEdgeStyle={&quot;curved&quot;:0,&quot;rounded&quot;:0};participant=umlControl;size=70;" vertex="1" parent="1">
          <mxGeometry x="390" y="40" width="70" height="340" as="geometry" />
        </mxCell>
        <mxCell id="GErdKHh-ykBHz63R_YA1-10" value="" style="html=1;points=[[0,0,0,0,5],[0,1,0,0,-5],[1,0,0,0,5],[1,1,0,0,-5]];perimeter=orthogonalPerimeter;outlineConnect=0;targetShapes=umlLifeline;portConstraint=eastwest;newEdgeStyle={&quot;curved&quot;:0,&quot;rounded&quot;:0};" vertex="1" parent="GErdKHh-ykBHz63R_YA1-9">
          <mxGeometry x="30" y="100" width="10" height="180" as="geometry" />
        </mxCell>
        <mxCell id="GErdKHh-ykBHz63R_YA1-11" value="Test Entity" style="shape=umlLifeline;perimeter=lifelinePerimeter;whiteSpace=wrap;html=1;container=1;dropTarget=0;collapsible=0;recursiveResize=0;outlineConnect=0;portConstraint=eastwest;newEdgeStyle={&quot;curved&quot;:0,&quot;rounded&quot;:0};" vertex="1" parent="1">
          <mxGeometry x="700" y="41.25" width="100" height="340" as="geometry" />
        </mxCell>
        <mxCell id="GErdKHh-ykBHz63R_YA1-12" value="" style="html=1;points=[[0,0,0,0,5],[0,1,0,0,-5],[1,0,0,0,5],[1,1,0,0,-5]];perimeter=orthogonalPerimeter;outlineConnect=0;targetShapes=umlLifeline;portConstraint=eastwest;newEdgeStyle={&quot;curved&quot;:0,&quot;rounded&quot;:0};" vertex="1" parent="GErdKHh-ykBHz63R_YA1-11">
          <mxGeometry x="45" y="180" width="10" height="40" as="geometry" />
        </mxCell>
        <mxCell id="GErdKHh-ykBHz63R_YA1-13" value="Request to Generate Test" style="html=1;verticalAlign=bottom;endArrow=block;curved=0;rounded=0;exitX=1;exitY=0;exitDx=0;exitDy=5;exitPerimeter=0;" edge="1" parent="1" target="GErdKHh-ykBHz63R_YA1-8" source="GErdKHh-ykBHz63R_YA1-4">
          <mxGeometry width="80" relative="1" as="geometry">
            <mxPoint x="115" y="153.5" as="sourcePoint" />
            <mxPoint x="262" y="153.5" as="targetPoint" />
          </mxGeometry>
        </mxCell>
        <mxCell id="GErdKHh-ykBHz63R_YA1-15" value="Request test&amp;nbsp;&lt;div&gt;generation content&lt;/div&gt;" style="html=1;verticalAlign=bottom;endArrow=block;curved=0;rounded=0;entryX=0;entryY=0;entryDx=0;entryDy=5;entryPerimeter=0;" edge="1" parent="1" source="GErdKHh-ykBHz63R_YA1-10" target="GErdKHh-ykBHz63R_YA1-22">
          <mxGeometry width="80" relative="1" as="geometry">
            <mxPoint x="470" y="140" as="sourcePoint" />
            <mxPoint x="420" y="194" as="targetPoint" />
          </mxGeometry>
        </mxCell>
        <mxCell id="GErdKHh-ykBHz63R_YA1-17" value="Return Test Entity" style="html=1;verticalAlign=bottom;endArrow=open;dashed=1;endSize=8;curved=0;rounded=0;exitX=0;exitY=1;exitDx=0;exitDy=-5;exitPerimeter=0;" edge="1" parent="1" source="GErdKHh-ykBHz63R_YA1-12" target="GErdKHh-ykBHz63R_YA1-10">
          <mxGeometry relative="1" as="geometry">
            <mxPoint x="719.5" y="226" as="sourcePoint" />
            <mxPoint x="569.5" y="226" as="targetPoint" />
          </mxGeometry>
        </mxCell>
        <mxCell id="GErdKHh-ykBHz63R_YA1-18" value="Return Generated Content" style="html=1;verticalAlign=bottom;endArrow=open;dashed=1;endSize=8;curved=0;rounded=0;exitX=0;exitY=1;exitDx=0;exitDy=-5;exitPerimeter=0;" edge="1" parent="1" source="GErdKHh-ykBHz63R_YA1-22" target="GErdKHh-ykBHz63R_YA1-10">
          <mxGeometry x="-0.0667" y="23" relative="1" as="geometry">
            <mxPoint x="660.5" y="360" as="sourcePoint" />
            <mxPoint x="510" y="360" as="targetPoint" />
            <mxPoint as="offset" />
          </mxGeometry>
        </mxCell>
        <mxCell id="GErdKHh-ykBHz63R_YA1-19" value="Return Created Test Entity" style="html=1;verticalAlign=bottom;endArrow=open;dashed=1;endSize=8;curved=0;rounded=0;exitX=0;exitY=1;exitDx=0;exitDy=-5;exitPerimeter=0;" edge="1" parent="1" source="GErdKHh-ykBHz63R_YA1-10" target="GErdKHh-ykBHz63R_YA1-7">
          <mxGeometry relative="1" as="geometry">
            <mxPoint x="440" y="260" as="sourcePoint" />
            <mxPoint x="280" y="260" as="targetPoint" />
          </mxGeometry>
        </mxCell>
        <mxCell id="GErdKHh-ykBHz63R_YA1-20" value="Return Test Entity" style="html=1;verticalAlign=bottom;endArrow=open;dashed=1;endSize=8;curved=0;rounded=0;exitX=0;exitY=1;exitDx=0;exitDy=-5;exitPerimeter=0;" edge="1" parent="1" source="GErdKHh-ykBHz63R_YA1-8" target="GErdKHh-ykBHz63R_YA1-4">
          <mxGeometry relative="1" as="geometry">
            <mxPoint x="330" y="400" as="sourcePoint" />
            <mxPoint x="180" y="400" as="targetPoint" />
          </mxGeometry>
        </mxCell>
        <mxCell id="GErdKHh-ykBHz63R_YA1-21" value="&lt;b&gt;AI Service&lt;/b&gt;" style="shape=umlLifeline;perimeter=lifelinePerimeter;whiteSpace=wrap;html=1;container=1;dropTarget=0;collapsible=0;recursiveResize=0;outlineConnect=0;portConstraint=eastwest;newEdgeStyle={&quot;curved&quot;:0,&quot;rounded&quot;:0};participant=umlControl;size=70;" vertex="1" parent="1">
          <mxGeometry x="550" y="42.5" width="70" height="337.5" as="geometry" />
        </mxCell>
        <mxCell id="GErdKHh-ykBHz63R_YA1-22" value="" style="html=1;points=[[0,0,0,0,5],[0,1,0,0,-5],[1,0,0,0,5],[1,1,0,0,-5]];perimeter=orthogonalPerimeter;outlineConnect=0;targetShapes=umlLifeline;portConstraint=eastwest;newEdgeStyle={&quot;curved&quot;:0,&quot;rounded&quot;:0};" vertex="1" parent="GErdKHh-ykBHz63R_YA1-21">
          <mxGeometry x="30" y="110" width="10" height="30" as="geometry" />
        </mxCell>
        <mxCell id="GErdKHh-ykBHz63R_YA1-23" value="Forward Request" style="html=1;verticalAlign=bottom;endArrow=block;curved=0;rounded=0;entryX=0;entryY=0;entryDx=0;entryDy=5;entryPerimeter=0;" edge="1" parent="1" source="GErdKHh-ykBHz63R_YA1-8" target="GErdKHh-ykBHz63R_YA1-10">
          <mxGeometry width="80" relative="1" as="geometry">
            <mxPoint x="290" y="200" as="sourcePoint" />
            <mxPoint x="370" y="200" as="targetPoint" />
          </mxGeometry>
        </mxCell>
        <mxCell id="GErdKHh-ykBHz63R_YA1-16" value="Create Test Entity with Content" style="html=1;verticalAlign=bottom;endArrow=block;curved=0;rounded=0;entryX=0;entryY=0;entryDx=0;entryDy=5;entryPerimeter=0;" edge="1" parent="1" source="GErdKHh-ykBHz63R_YA1-10" target="GErdKHh-ykBHz63R_YA1-12">
          <mxGeometry x="0.1692" y="5" width="80" relative="1" as="geometry">
            <mxPoint x="470" y="210" as="sourcePoint" />
            <mxPoint x="690" y="160" as="targetPoint" />
            <Array as="points" />
            <mxPoint as="offset" />
          </mxGeometry>
        </mxCell>
        <mxCell id="GErdKHh-ykBHz63R_YA1-24" value="Test Repository" style="shape=umlLifeline;perimeter=lifelinePerimeter;whiteSpace=wrap;html=1;container=1;dropTarget=0;collapsible=0;recursiveResize=0;outlineConnect=0;portConstraint=eastwest;newEdgeStyle={&quot;curved&quot;:0,&quot;rounded&quot;:0};" vertex="1" parent="1">
          <mxGeometry x="870" y="40" width="100" height="340" as="geometry" />
        </mxCell>
        <mxCell id="GErdKHh-ykBHz63R_YA1-25" value="" style="html=1;points=[[0,0,0,0,5],[0,1,0,0,-5],[1,0,0,0,5],[1,1,0,0,-5]];perimeter=orthogonalPerimeter;outlineConnect=0;targetShapes=umlLifeline;portConstraint=eastwest;newEdgeStyle={&quot;curved&quot;:0,&quot;rounded&quot;:0};" vertex="1" parent="GErdKHh-ykBHz63R_YA1-24">
          <mxGeometry x="45" y="250" width="10" height="40" as="geometry" />
        </mxCell>
        <mxCell id="GErdKHh-ykBHz63R_YA1-26" value="Save Test Entity" style="html=1;verticalAlign=bottom;endArrow=block;curved=0;rounded=0;entryX=0;entryY=0;entryDx=0;entryDy=5;entryPerimeter=0;" edge="1" parent="1" source="GErdKHh-ykBHz63R_YA1-10" target="GErdKHh-ykBHz63R_YA1-25">
          <mxGeometry width="80" relative="1" as="geometry">
            <mxPoint x="630" y="320" as="sourcePoint" />
            <mxPoint x="710" y="320" as="targetPoint" />
          </mxGeometry>
        </mxCell>
      </root>
    </mxGraphModel>
  </diagram>
</mxfile>
